<svg xmlns="http://www.w3.org/2000/svg" viewBox="46 20 54 80" x="0px" y="0px" height="100%" width="100%" >
     <path d="M94.353,82.985H50.637a3.11,3.11,0,0,1-3.137-3.1V48.282a3.143,3.143,0,0,1,3.137-3.137H94.353a3.143,3.143,0,0,1,3.137,3.137V79.848a3.143,3.143,0,0,1-3.137,3.137Z" fill="#f2f2f2"/>
     <path d="M53.734,82.985l18.7-15.048.119-.794L53.3,53.285l-.04,29.025Z" fill="#231f20" opacity="0.1" style="isolation:isolate"/>
     <path d="M50.637,82.985a3.085,3.085,0,0,1-3.137-3.1V48.242c0-1.747,1.39-2.065,3.137-2.065s3.137.357,3.137,2.065V82.985Z" fill="#d54b3d"/>
     <path d="M50.637,46.654c2.224,0,2.66.675,2.66,1.588V82.548h-2.66a2.66,2.66,0,0,1-2.66-2.66V48.242c-.04-.953.437-1.588,2.66-1.588Zm0-.437c-1.747,0-3.137.357-3.137,2.025V79.848a3.094,3.094,0,0,0,3.137,3.137h3.137V48.242c-.04-1.707-1.39-2.025-3.137-2.025Z" fill="#d54b3d"/>
     <path d="M94.353,46.654c2.025,0,2.66.4,2.66,1.509V79.927a2.66,2.66,0,0,1-2.66,2.66h-2.66V48.163c-.04-1.151.635-1.509,2.66-1.509Zm0-.437c-1.747,0-3.137.238-3.137,1.946V83.024h3.137a3.118,3.118,0,0,0,3.137-3.137V48.123c-.04-1.707-1.429-1.906-3.137-1.906Z" fill="#d54b3d"/>
     <path d="M94.353,82.985H91.216V48.163c0-1.747,1.39-1.946,3.137-1.946s3.137.238,3.137,1.946V79.927a3.127,3.127,0,0,1-3.137,3.057Z" fill="#d54b3d"/>
     <path d="M80.972,82.985,47.778,49.552l1.747.715L72.634,66.9,97.489,48.679V79.927a3.11,3.11,0,0,1-3.137,3.1l-13.381-.04Z" fill="#231f20" opacity="0.08" style="isolation:isolate"/>
     <path d="M72.435,67.976,48.85,50.863a3.142,3.142,0,1,1,3.693-5.082L72.475,60.273,92.526,45.582a3.129,3.129,0,1,1,3.653,5.082L72.435,67.976Z" fill="#d54b3d"/>
     <path d="M94.353,45.463h0a2.679,2.679,0,0,1,1.588,4.844L72.435,67.42,49.128,50.505a2.731,2.731,0,0,1-.675-3.732,2.657,2.657,0,0,1,2.224-1.151,2.462,2.462,0,0,1,1.588.516L72.157,60.591l.278.159.278-.159L92.725,45.9a3.331,3.331,0,0,1,1.628-.437Zm0-.476a2.805,2.805,0,0,0-1.826.6L72.475,60.273,52.5,45.741a3.078,3.078,0,0,0-1.866-.6,3.312,3.312,0,0,0-2.581,1.31,3.179,3.179,0,0,0,.794,4.368L72.435,67.976,96.179,50.664a3.156,3.156,0,0,0,.715-4.368,3.237,3.237,0,0,0-2.541-1.31Z" fill="#d54b3d"/>
</svg>